<?xml version="1.0" encoding="UTF-8"?>
<svg id="Layer_2" data-name="Layer 2" xmlns="http://www.w3.org/2000/svg" viewBox="0 0 1720.1 317.46">
  <defs>
    <style>
      .cls-1 {
        fill: #fff;
      }

      .cls-2 {
        fill: #f6f5ff;
      }
    </style>
  </defs>
  <g id="Layer_1-2" data-name="Layer 1">
    <g>
      <path class="cls-1" d="M346.5,0v96.72c-4.67-5.28-10.04-9.61-16.09-12.98-11.16-6.2-23.79-9.31-37.88-9.31-16.21,0-30.78,3.58-43.72,10.73-12.94,7.16-23.09,17.26-30.46,30.31-7.36,13.05-11.04,28.2-11.04,45.45s3.68,32.67,11.04,45.61c7.37,12.94,17.52,22.99,30.46,30.14,12.94,7.16,27.51,10.74,43.72,10.74,14.73,0,27.62-3.11,38.67-9.32,6.72-3.77,12.56-8.77,17.51-15v24.35h37.57V0h-39.78ZM340.67,188.85c-4.53,8.11-10.53,14.32-18,18.63-7.47,4.31-15.94,6.47-25.41,6.47s-17.94-2.16-25.4-6.47c-7.48-4.31-13.47-10.52-18-18.63-4.52-8.09-6.78-17.41-6.78-27.93s2.26-20.04,6.78-27.94c4.53-7.89,10.52-13.99,18-18.3,7.46-4.31,15.94-6.47,25.4-6.47s17.94,2.16,25.41,6.47c7.47,4.31,13.47,10.41,18,18.3,4.52,7.9,6.78,17.21,6.78,27.94s-2.26,19.84-6.78,27.93Z"/>
      <path class="cls-1" d="M576.75,76.7v170.74h-37.56v-23.76c-4.93,6.05-11.04,11.03-18.3,14.94-10.95,5.89-22.94,8.84-35.99,8.84-14.31,0-26.94-2.68-37.87-8.05-10.95-5.37-19.52-13.57-25.73-24.62s-9.31-24.98-9.31-41.82v-96.27h39.77v91.22c0,14.94,3.47,26.15,10.42,33.61,6.94,7.48,16.62,11.21,29.04,11.21,9.25,0,17.36-1.9,24.3-5.68,6.94-3.79,12.31-9.47,16.1-17.05,3.79-7.57,5.68-16.93,5.68-28.09v-85.22h39.45Z"/>
      <path class="cls-1" d="M693.4,247.28c-17.68,0-33.41-3.73-47.19-11.21-13.78-7.47-24.57-17.68-32.35-30.62-7.79-12.94-11.68-27.83-11.68-44.66s3.89-31.98,11.68-44.82c7.78-12.83,18.57-22.99,32.35-30.46,13.78-7.47,29.51-11.21,47.19-11.21,16.2,0,30.62,3.37,43.24,10.1,12.63,6.74,22.09,16.52,28.41,29.35l-29.99,17.68c-5.05-7.78-11.21-13.62-18.46-17.52-7.26-3.89-15.1-5.84-23.52-5.84-9.68,0-18.42,2.16-26.2,6.47-7.79,4.32-13.89,10.42-18.31,18.31s-6.63,17.2-6.63,27.93,2.21,20.1,6.63,28.09c4.42,8,10.52,14.16,18.31,18.47,7.78,4.32,16.52,6.47,26.2,6.47,8.41,0,16.26-1.94,23.52-5.84,7.26-3.89,13.41-9.83,18.46-17.83l29.99,17.68c-6.31,12.63-15.78,22.36-28.41,29.2-12.63,6.84-27.04,10.26-43.24,10.26Z"/>
      <path class="cls-1" d="M880.19,246.95c-17.05,0-32.35-3.73-45.93-11.21-13.57-7.47-24.26-17.73-32.04-30.77-7.79-13.04-11.68-27.88-11.68-44.51s3.89-31.98,11.68-44.82c7.78-12.83,18.41-22.99,31.88-30.46,13.46-7.47,28.83-11.21,46.08-11.21s32.98,3.74,46.56,11.21c13.57,7.47,24.2,17.63,31.88,30.46,7.68,12.84,11.52,27.78,11.52,44.82s-3.84,31.72-11.52,44.66c-7.68,12.94-18.36,23.15-32.04,30.62-13.68,7.47-29.15,11.21-46.4,11.21ZM880.19,213.49c9.68,0,18.31-2.16,25.88-6.47,7.57-4.31,13.52-10.52,17.83-18.62,4.31-8.1,6.47-17.41,6.47-27.93s-2.16-20.04-6.47-27.93c-4.32-7.89-10.26-13.99-17.83-18.31-7.58-4.31-16.1-6.47-25.57-6.47s-17.99,2.16-25.57,6.47c-7.58,4.32-13.57,10.42-17.99,18.31s-6.63,17.2-6.63,27.93,2.21,19.84,6.63,27.93c4.42,8.1,10.42,14.31,17.99,18.62,7.58,4.32,15.99,6.47,25.25,6.47Z"/>
      <path class="cls-1" d="M995.64,246.82V.25h39.14v246.57h-39.14Z"/>
      <path class="cls-1" d="M1060.46,247.37V0h39.14v247.37h-39.14Z"/>
      <path class="cls-1" d="M1476.04,83.1v24.5c-5.52-6.59-12.1-11.81-19.72-15.66-11.48-5.79-24.36-8.68-38.67-8.68-16.21,0-30.73,3.37-43.56,10.1-12.84,6.74-22.99,16.25-30.46,28.56-7.47,12.31-11.2,26.68-11.2,43.09s3.73,30.41,11.2,42.61c7.47,12.21,17.62,21.73,30.46,28.57,12.83,6.84,27.35,10.26,43.56,10.26,14.31,0,27.19-2.95,38.67-8.84,6.77-3.48,12.72-8.03,17.83-13.65v8.91c0,17.26-4.32,30.15-12.94,38.67-8.63,8.52-22.1,12.78-40.41,12.78-11.99,0-23.56-1.89-34.72-5.68-11.15-3.79-20.41-8.73-27.77-14.83l-17.68,29.35c9.68,7.99,21.83,14.05,36.46,18.15,14.62,4.1,29.83,6.15,45.61,6.15,29.46,0,51.97-7.21,67.55-21.62,15.57-14.41,23.35-36.88,23.35-67.39V83.1h-37.56ZM1468.31,189.79c-4.32,7.26-10.37,12.94-18.15,17.04-7.79,4.1-16.63,6.16-26.51,6.16s-18.78-2.06-26.68-6.16c-7.89-4.1-13.99-9.78-18.3-17.04-4.32-7.26-6.47-15.52-6.47-24.78s2.15-18.1,6.47-25.25c4.31-7.15,10.41-12.73,18.3-16.73,7.9-4,16.78-6,26.68-6s18.72,2,26.51,6c7.78,4,13.83,9.58,18.15,16.73,4.31,7.15,6.47,15.57,6.47,25.25s-2.16,17.52-6.47,24.78Z"/>
      <g>
        <g>
          <path class="cls-1" d="M180.93,173.88c0-50.13-40.5-90.77-90.47-90.77S0,123.74,0,173.88h180.93ZM35.02,146.92c9.98-20.62,31.06-34.84,55.45-34.84s45.46,14.22,55.45,34.84H35.02Z"/>
          <path class="cls-1" d="M169.94,201.83c-16.22,27.92-46.39,45.72-79.37,45.62h0s-.21,0-.21,0h0c-32.98.1-63.15-17.7-79.37-45.62l30.37-5.54c.72-.13,1.46.13,1.94.69,11.68,13.26,28.74,21.29,47.06,21.22h0s.21,0,.21,0h0c18.31.07,35.38-7.95,47.05-21.22.48-.55,1.22-.82,1.94-.69l30.37,5.54Z"/>
        </g>
        <path class="cls-2" d="M39.48,60.36c0-.9.47-1.73,1.25-2.19,8.09-4.78,25.63-13.52,49.41-13.59,24.15-.08,41.95,8.82,50.06,13.61.78.46,1.25,1.29,1.25,2.19v24.76c0,1.9-2.02,3.13-3.72,2.26-9.26-4.76-25.89-11.5-47.51-11.46-21.37.05-37.82,6.72-47.04,11.45-1.7.87-3.72-.36-3.72-2.26v-24.78Z"/>
        <path class="cls-2" d="M28.71,64.3l-23.07-10.56c-1.88-.86-2.01-3.48-.22-4.52L89.1.36c.79-.46,1.78-.46,2.57,0l83.85,48.86c1.79,1.04,1.66,3.66-.22,4.52l-23.06,10.56c-1.69.77-3.61-.46-3.61-2.32v-8.73c0-.96-.54-1.84-1.39-2.27-10.34-5.25-30.4-13.61-56.85-13.59-26.35.02-46.34,8.34-56.67,13.59-.85.43-1.39,1.31-1.39,2.27v8.73c0,1.86-1.92,3.09-3.61,2.32Z"/>
      </g>
      <g>
        <path class="cls-1" d="M1720.1,173.88c0-50.13-40.5-90.77-90.47-90.77s-90.47,40.64-90.47,90.77h180.93ZM1574.19,146.92c9.98-20.62,31.06-34.84,55.45-34.84s45.46,14.22,55.45,34.84h-110.89Z"/>
        <path class="cls-1" d="M1709.11,201.83c-16.22,27.92-46.39,45.72-79.37,45.62h0s-.21,0-.21,0h0c-32.98.1-63.15-17.7-79.37-45.62l30.37-5.54c.72-.13,1.46.13,1.94.69,11.68,13.26,28.74,21.29,47.06,21.22h0s.21,0,.21,0h0c18.31.07,35.38-7.95,47.05-21.22.48-.55,1.22-.82,1.94-.69l30.37,5.54Z"/>
      </g>
      <g>
        <path class="cls-1" d="M1307.11,173.88c0-50.13-40.5-90.77-90.47-90.77s-90.47,40.64-90.47,90.77h180.93ZM1161.2,146.92c9.98-20.62,31.06-34.84,55.45-34.84s45.46,14.22,55.45,34.84h-110.89Z"/>
        <path class="cls-1" d="M1296.12,201.83c-16.22,27.92-46.39,45.72-79.37,45.62h0s-.21,0-.21,0h0c-32.98.1-63.15-17.7-79.37-45.62l30.37-5.54c.72-.13,1.46.13,1.94.69,11.68,13.26,28.74,21.29,47.06,21.22h0s.21,0,.21,0h0c18.31.07,35.38-7.95,47.05-21.22.48-.55,1.22-.82,1.94-.69l30.37,5.54Z"/>
      </g>
    </g>
  </g>
</svg>